<mxfile host="app.diagrams.net" modified="2023-09-07T17:44:39.048Z" agent="Mozilla/5.0 (Macintosh; Intel Mac OS X 10_15_7) AppleWebKit/605.1.15 (KHTML, like Gecko) Version/16.6 Safari/605.1.15" etag="6kpPh6ESrZ7oMXsmWm2b" version="21.7.2" type="github">
  <diagram name="Page-1" id="5acyuzSfHyGI-kUvcfdN">
    <mxGraphModel dx="9565" dy="5110" grid="1" gridSize="10" guides="1" tooltips="1" connect="1" arrows="1" fold="1" page="1" pageScale="1" pageWidth="850" pageHeight="1100" math="0" shadow="0">
      <root>
        <mxCell id="0" />
        <mxCell id="1" parent="0" />
        <mxCell id="Uvgk_o883Cqr8r8pOxZ5-1" value="" style="whiteSpace=wrap;html=1;aspect=fixed;" vertex="1" parent="1">
          <mxGeometry x="-2040" y="-70" width="2870" height="2870" as="geometry" />
        </mxCell>
        <mxCell id="Uvgk_o883Cqr8r8pOxZ5-4" style="edgeStyle=orthogonalEdgeStyle;rounded=0;orthogonalLoop=1;jettySize=auto;html=1;exitX=0.5;exitY=1;exitDx=0;exitDy=0;entryX=0.5;entryY=0;entryDx=0;entryDy=0;" edge="1" parent="1" source="Uvgk_o883Cqr8r8pOxZ5-2" target="Uvgk_o883Cqr8r8pOxZ5-3">
          <mxGeometry relative="1" as="geometry" />
        </mxCell>
        <mxCell id="Uvgk_o883Cqr8r8pOxZ5-17" style="edgeStyle=orthogonalEdgeStyle;rounded=0;orthogonalLoop=1;jettySize=auto;html=1;exitX=0.5;exitY=1;exitDx=0;exitDy=0;" edge="1" parent="1" source="Uvgk_o883Cqr8r8pOxZ5-2" target="Uvgk_o883Cqr8r8pOxZ5-16">
          <mxGeometry relative="1" as="geometry" />
        </mxCell>
        <mxCell id="Uvgk_o883Cqr8r8pOxZ5-29" style="edgeStyle=orthogonalEdgeStyle;rounded=0;orthogonalLoop=1;jettySize=auto;html=1;exitX=0.5;exitY=1;exitDx=0;exitDy=0;entryX=0.5;entryY=0;entryDx=0;entryDy=0;" edge="1" parent="1" source="Uvgk_o883Cqr8r8pOxZ5-2" target="Uvgk_o883Cqr8r8pOxZ5-28">
          <mxGeometry relative="1" as="geometry" />
        </mxCell>
        <mxCell id="Uvgk_o883Cqr8r8pOxZ5-2" value="&lt;font style=&quot;font-size: 24px;&quot;&gt;ЗДАНИЕ&lt;/font&gt;" style="rounded=1;whiteSpace=wrap;html=1;" vertex="1" parent="1">
          <mxGeometry x="-375" y="10" width="120" height="60" as="geometry" />
        </mxCell>
        <mxCell id="Uvgk_o883Cqr8r8pOxZ5-7" style="edgeStyle=orthogonalEdgeStyle;rounded=0;orthogonalLoop=1;jettySize=auto;html=1;exitX=0.5;exitY=1;exitDx=0;exitDy=0;entryX=0.5;entryY=0;entryDx=0;entryDy=0;" edge="1" parent="1" source="Uvgk_o883Cqr8r8pOxZ5-3" target="Uvgk_o883Cqr8r8pOxZ5-6">
          <mxGeometry relative="1" as="geometry" />
        </mxCell>
        <mxCell id="Uvgk_o883Cqr8r8pOxZ5-3" value="&lt;font size=&quot;4&quot;&gt;Государственные&lt;br&gt;&lt;/font&gt;здания" style="rounded=1;whiteSpace=wrap;html=1;" vertex="1" parent="1">
          <mxGeometry x="270" y="140" width="160" height="60" as="geometry" />
        </mxCell>
        <mxCell id="Uvgk_o883Cqr8r8pOxZ5-9" style="edgeStyle=orthogonalEdgeStyle;rounded=0;orthogonalLoop=1;jettySize=auto;html=1;exitX=0.5;exitY=1;exitDx=0;exitDy=0;entryX=0.5;entryY=0;entryDx=0;entryDy=0;" edge="1" parent="1" source="Uvgk_o883Cqr8r8pOxZ5-6" target="Uvgk_o883Cqr8r8pOxZ5-8">
          <mxGeometry relative="1" as="geometry" />
        </mxCell>
        <mxCell id="Uvgk_o883Cqr8r8pOxZ5-11" style="edgeStyle=orthogonalEdgeStyle;rounded=0;orthogonalLoop=1;jettySize=auto;html=1;exitX=0.5;exitY=1;exitDx=0;exitDy=0;entryX=0.5;entryY=0;entryDx=0;entryDy=0;" edge="1" parent="1" source="Uvgk_o883Cqr8r8pOxZ5-6" target="Uvgk_o883Cqr8r8pOxZ5-10">
          <mxGeometry relative="1" as="geometry" />
        </mxCell>
        <mxCell id="Uvgk_o883Cqr8r8pOxZ5-13" style="edgeStyle=orthogonalEdgeStyle;rounded=0;orthogonalLoop=1;jettySize=auto;html=1;exitX=0.5;exitY=1;exitDx=0;exitDy=0;entryX=0.5;entryY=0;entryDx=0;entryDy=0;" edge="1" parent="1" source="Uvgk_o883Cqr8r8pOxZ5-6" target="Uvgk_o883Cqr8r8pOxZ5-12">
          <mxGeometry relative="1" as="geometry" />
        </mxCell>
        <mxCell id="Uvgk_o883Cqr8r8pOxZ5-15" style="edgeStyle=orthogonalEdgeStyle;rounded=0;orthogonalLoop=1;jettySize=auto;html=1;exitX=0.5;exitY=1;exitDx=0;exitDy=0;entryX=0.5;entryY=0;entryDx=0;entryDy=0;" edge="1" parent="1" source="Uvgk_o883Cqr8r8pOxZ5-6" target="Uvgk_o883Cqr8r8pOxZ5-14">
          <mxGeometry relative="1" as="geometry" />
        </mxCell>
        <mxCell id="Uvgk_o883Cqr8r8pOxZ5-6" value="&lt;font style=&quot;font-size: 24px;&quot;&gt;Больница&lt;/font&gt;" style="rounded=1;whiteSpace=wrap;html=1;" vertex="1" parent="1">
          <mxGeometry x="280" y="260" width="140" height="60" as="geometry" />
        </mxCell>
        <mxCell id="Uvgk_o883Cqr8r8pOxZ5-8" value="&lt;font style=&quot;font-size: 24px;&quot;&gt;Частные&lt;/font&gt;" style="rounded=1;whiteSpace=wrap;html=1;" vertex="1" parent="1">
          <mxGeometry x="-10" y="390" width="120" height="60" as="geometry" />
        </mxCell>
        <mxCell id="Uvgk_o883Cqr8r8pOxZ5-10" value="&lt;font style=&quot;font-size: 24px;&quot;&gt;Государственные&lt;/font&gt;" style="rounded=1;whiteSpace=wrap;html=1;" vertex="1" parent="1">
          <mxGeometry x="580" y="390" width="210" height="60" as="geometry" />
        </mxCell>
        <mxCell id="Uvgk_o883Cqr8r8pOxZ5-12" value="&lt;font style=&quot;font-size: 24px;&quot;&gt;Детские&lt;/font&gt;" style="rounded=1;whiteSpace=wrap;html=1;" vertex="1" parent="1">
          <mxGeometry x="150" y="390" width="120" height="60" as="geometry" />
        </mxCell>
        <mxCell id="Uvgk_o883Cqr8r8pOxZ5-14" value="&lt;font style=&quot;font-size: 24px;&quot;&gt;Для животных&lt;/font&gt;" style="rounded=1;whiteSpace=wrap;html=1;" vertex="1" parent="1">
          <mxGeometry x="325" y="390" width="200" height="60" as="geometry" />
        </mxCell>
        <mxCell id="Uvgk_o883Cqr8r8pOxZ5-21" style="edgeStyle=orthogonalEdgeStyle;rounded=0;orthogonalLoop=1;jettySize=auto;html=1;exitX=0.5;exitY=1;exitDx=0;exitDy=0;entryX=0.5;entryY=0;entryDx=0;entryDy=0;" edge="1" parent="1" source="Uvgk_o883Cqr8r8pOxZ5-16" target="Uvgk_o883Cqr8r8pOxZ5-20">
          <mxGeometry relative="1" as="geometry" />
        </mxCell>
        <mxCell id="Uvgk_o883Cqr8r8pOxZ5-16" value="&lt;font size=&quot;4&quot;&gt;Промышленные&amp;nbsp;здания&lt;/font&gt;" style="rounded=1;whiteSpace=wrap;html=1;" vertex="1" parent="1">
          <mxGeometry x="-530" y="140" width="220" height="60" as="geometry" />
        </mxCell>
        <mxCell id="Uvgk_o883Cqr8r8pOxZ5-23" style="edgeStyle=orthogonalEdgeStyle;rounded=0;orthogonalLoop=1;jettySize=auto;html=1;exitX=0.5;exitY=1;exitDx=0;exitDy=0;entryX=0.5;entryY=0;entryDx=0;entryDy=0;" edge="1" parent="1" source="Uvgk_o883Cqr8r8pOxZ5-20" target="Uvgk_o883Cqr8r8pOxZ5-22">
          <mxGeometry relative="1" as="geometry" />
        </mxCell>
        <mxCell id="Uvgk_o883Cqr8r8pOxZ5-25" style="edgeStyle=orthogonalEdgeStyle;rounded=0;orthogonalLoop=1;jettySize=auto;html=1;exitX=0.5;exitY=1;exitDx=0;exitDy=0;entryX=0.5;entryY=0;entryDx=0;entryDy=0;" edge="1" parent="1" source="Uvgk_o883Cqr8r8pOxZ5-20" target="Uvgk_o883Cqr8r8pOxZ5-24">
          <mxGeometry relative="1" as="geometry" />
        </mxCell>
        <mxCell id="Uvgk_o883Cqr8r8pOxZ5-27" style="edgeStyle=orthogonalEdgeStyle;rounded=0;orthogonalLoop=1;jettySize=auto;html=1;exitX=0.5;exitY=1;exitDx=0;exitDy=0;entryX=0.5;entryY=0;entryDx=0;entryDy=0;" edge="1" parent="1" source="Uvgk_o883Cqr8r8pOxZ5-20" target="Uvgk_o883Cqr8r8pOxZ5-26">
          <mxGeometry relative="1" as="geometry" />
        </mxCell>
        <mxCell id="Uvgk_o883Cqr8r8pOxZ5-20" value="&lt;font style=&quot;font-size: 24px;&quot;&gt;Электроэнергитичные&amp;nbsp;&lt;/font&gt;" style="rounded=1;whiteSpace=wrap;html=1;" vertex="1" parent="1">
          <mxGeometry x="-580" y="280" width="320" height="60" as="geometry" />
        </mxCell>
        <mxCell id="Uvgk_o883Cqr8r8pOxZ5-22" value="&lt;font style=&quot;font-size: 36px;&quot;&gt;ТЭС&lt;/font&gt;" style="rounded=1;whiteSpace=wrap;html=1;" vertex="1" parent="1">
          <mxGeometry x="-300" y="390" width="120" height="60" as="geometry" />
        </mxCell>
        <mxCell id="Uvgk_o883Cqr8r8pOxZ5-24" value="&lt;font style=&quot;font-size: 36px;&quot;&gt;АЭС&lt;/font&gt;" style="rounded=1;whiteSpace=wrap;html=1;" vertex="1" parent="1">
          <mxGeometry x="-480" y="390" width="120" height="60" as="geometry" />
        </mxCell>
        <mxCell id="Uvgk_o883Cqr8r8pOxZ5-26" value="&lt;font style=&quot;font-size: 36px;&quot;&gt;ГЭС&lt;/font&gt;" style="rounded=1;whiteSpace=wrap;html=1;" vertex="1" parent="1">
          <mxGeometry x="-670" y="390" width="120" height="60" as="geometry" />
        </mxCell>
        <mxCell id="Uvgk_o883Cqr8r8pOxZ5-31" style="edgeStyle=orthogonalEdgeStyle;rounded=0;orthogonalLoop=1;jettySize=auto;html=1;exitX=0.5;exitY=1;exitDx=0;exitDy=0;entryX=0.5;entryY=0;entryDx=0;entryDy=0;" edge="1" parent="1" source="Uvgk_o883Cqr8r8pOxZ5-28" target="Uvgk_o883Cqr8r8pOxZ5-30">
          <mxGeometry relative="1" as="geometry" />
        </mxCell>
        <mxCell id="Uvgk_o883Cqr8r8pOxZ5-33" style="edgeStyle=orthogonalEdgeStyle;rounded=0;orthogonalLoop=1;jettySize=auto;html=1;exitX=0.5;exitY=1;exitDx=0;exitDy=0;" edge="1" parent="1" source="Uvgk_o883Cqr8r8pOxZ5-28" target="Uvgk_o883Cqr8r8pOxZ5-32">
          <mxGeometry relative="1" as="geometry" />
        </mxCell>
        <mxCell id="Uvgk_o883Cqr8r8pOxZ5-35" style="edgeStyle=orthogonalEdgeStyle;rounded=0;orthogonalLoop=1;jettySize=auto;html=1;exitX=0.5;exitY=1;exitDx=0;exitDy=0;entryX=0.5;entryY=0;entryDx=0;entryDy=0;" edge="1" parent="1" source="Uvgk_o883Cqr8r8pOxZ5-28" target="Uvgk_o883Cqr8r8pOxZ5-34">
          <mxGeometry relative="1" as="geometry" />
        </mxCell>
        <mxCell id="Uvgk_o883Cqr8r8pOxZ5-28" value="&lt;font style=&quot;font-size: 18px;&quot;&gt;Сельскохозяйственные здания&lt;/font&gt;" style="rounded=1;whiteSpace=wrap;html=1;" vertex="1" parent="1">
          <mxGeometry x="-1180" y="140" width="240" height="60" as="geometry" />
        </mxCell>
        <mxCell id="Uvgk_o883Cqr8r8pOxZ5-49" style="edgeStyle=orthogonalEdgeStyle;rounded=0;orthogonalLoop=1;jettySize=auto;html=1;exitX=0.5;exitY=1;exitDx=0;exitDy=0;entryX=0.5;entryY=0;entryDx=0;entryDy=0;" edge="1" parent="1" source="Uvgk_o883Cqr8r8pOxZ5-30" target="Uvgk_o883Cqr8r8pOxZ5-48">
          <mxGeometry relative="1" as="geometry" />
        </mxCell>
        <mxCell id="Uvgk_o883Cqr8r8pOxZ5-51" style="edgeStyle=orthogonalEdgeStyle;rounded=0;orthogonalLoop=1;jettySize=auto;html=1;exitX=0.5;exitY=1;exitDx=0;exitDy=0;entryX=0.5;entryY=0;entryDx=0;entryDy=0;" edge="1" parent="1" source="Uvgk_o883Cqr8r8pOxZ5-30" target="Uvgk_o883Cqr8r8pOxZ5-50">
          <mxGeometry relative="1" as="geometry" />
        </mxCell>
        <mxCell id="Uvgk_o883Cqr8r8pOxZ5-53" style="edgeStyle=orthogonalEdgeStyle;rounded=0;orthogonalLoop=1;jettySize=auto;html=1;exitX=0.5;exitY=1;exitDx=0;exitDy=0;entryX=0.5;entryY=0;entryDx=0;entryDy=0;" edge="1" parent="1" source="Uvgk_o883Cqr8r8pOxZ5-30" target="Uvgk_o883Cqr8r8pOxZ5-52">
          <mxGeometry relative="1" as="geometry">
            <Array as="points">
              <mxPoint x="-840" y="470" />
              <mxPoint x="-610" y="470" />
            </Array>
          </mxGeometry>
        </mxCell>
        <mxCell id="Uvgk_o883Cqr8r8pOxZ5-55" style="edgeStyle=orthogonalEdgeStyle;rounded=0;orthogonalLoop=1;jettySize=auto;html=1;exitX=0.5;exitY=1;exitDx=0;exitDy=0;entryX=0.5;entryY=0;entryDx=0;entryDy=0;" edge="1" parent="1" source="Uvgk_o883Cqr8r8pOxZ5-30" target="Uvgk_o883Cqr8r8pOxZ5-54">
          <mxGeometry relative="1" as="geometry" />
        </mxCell>
        <mxCell id="Uvgk_o883Cqr8r8pOxZ5-30" value="&lt;font style=&quot;font-size: 24px;&quot;&gt;Животноводческие&lt;/font&gt;" style="rounded=1;whiteSpace=wrap;html=1;" vertex="1" parent="1">
          <mxGeometry x="-960" y="280" width="240" height="70" as="geometry" />
        </mxCell>
        <mxCell id="Uvgk_o883Cqr8r8pOxZ5-43" style="edgeStyle=orthogonalEdgeStyle;rounded=0;orthogonalLoop=1;jettySize=auto;html=1;exitX=0.5;exitY=1;exitDx=0;exitDy=0;entryX=0.5;entryY=0;entryDx=0;entryDy=0;" edge="1" parent="1" source="Uvgk_o883Cqr8r8pOxZ5-32" target="Uvgk_o883Cqr8r8pOxZ5-42">
          <mxGeometry relative="1" as="geometry" />
        </mxCell>
        <mxCell id="Uvgk_o883Cqr8r8pOxZ5-45" style="edgeStyle=orthogonalEdgeStyle;rounded=0;orthogonalLoop=1;jettySize=auto;html=1;exitX=0.5;exitY=1;exitDx=0;exitDy=0;entryX=0.5;entryY=0;entryDx=0;entryDy=0;" edge="1" parent="1" source="Uvgk_o883Cqr8r8pOxZ5-32" target="Uvgk_o883Cqr8r8pOxZ5-44">
          <mxGeometry relative="1" as="geometry" />
        </mxCell>
        <mxCell id="Uvgk_o883Cqr8r8pOxZ5-47" style="edgeStyle=orthogonalEdgeStyle;rounded=0;orthogonalLoop=1;jettySize=auto;html=1;exitX=0.5;exitY=1;exitDx=0;exitDy=0;entryX=0.5;entryY=0;entryDx=0;entryDy=0;" edge="1" parent="1" source="Uvgk_o883Cqr8r8pOxZ5-32" target="Uvgk_o883Cqr8r8pOxZ5-46">
          <mxGeometry relative="1" as="geometry" />
        </mxCell>
        <mxCell id="Uvgk_o883Cqr8r8pOxZ5-32" value="&lt;font style=&quot;font-size: 24px;&quot;&gt;Птицеводческие&lt;/font&gt;" style="rounded=1;whiteSpace=wrap;html=1;" vertex="1" parent="1">
          <mxGeometry x="-1340" y="280" width="210" height="80" as="geometry" />
        </mxCell>
        <mxCell id="Uvgk_o883Cqr8r8pOxZ5-37" style="edgeStyle=orthogonalEdgeStyle;rounded=0;orthogonalLoop=1;jettySize=auto;html=1;exitX=0.5;exitY=1;exitDx=0;exitDy=0;entryX=0.5;entryY=0;entryDx=0;entryDy=0;" edge="1" parent="1" source="Uvgk_o883Cqr8r8pOxZ5-34" target="Uvgk_o883Cqr8r8pOxZ5-36">
          <mxGeometry relative="1" as="geometry" />
        </mxCell>
        <mxCell id="Uvgk_o883Cqr8r8pOxZ5-39" style="edgeStyle=orthogonalEdgeStyle;rounded=0;orthogonalLoop=1;jettySize=auto;html=1;exitX=0.5;exitY=1;exitDx=0;exitDy=0;entryX=0.5;entryY=0;entryDx=0;entryDy=0;" edge="1" parent="1" source="Uvgk_o883Cqr8r8pOxZ5-34" target="Uvgk_o883Cqr8r8pOxZ5-38">
          <mxGeometry relative="1" as="geometry" />
        </mxCell>
        <mxCell id="Uvgk_o883Cqr8r8pOxZ5-41" style="edgeStyle=orthogonalEdgeStyle;rounded=0;orthogonalLoop=1;jettySize=auto;html=1;exitX=0.5;exitY=1;exitDx=0;exitDy=0;entryX=0.5;entryY=0;entryDx=0;entryDy=0;" edge="1" parent="1" source="Uvgk_o883Cqr8r8pOxZ5-34" target="Uvgk_o883Cqr8r8pOxZ5-40">
          <mxGeometry relative="1" as="geometry" />
        </mxCell>
        <mxCell id="Uvgk_o883Cqr8r8pOxZ5-34" value="&lt;font style=&quot;font-size: 24px;&quot;&gt;Культивационные&lt;/font&gt;&amp;nbsp;" style="rounded=1;whiteSpace=wrap;html=1;" vertex="1" parent="1">
          <mxGeometry x="-1700" y="280" width="240" height="70" as="geometry" />
        </mxCell>
        <mxCell id="Uvgk_o883Cqr8r8pOxZ5-36" value="&lt;font style=&quot;font-size: 24px;&quot;&gt;оранжереи&lt;/font&gt;" style="rounded=1;whiteSpace=wrap;html=1;" vertex="1" parent="1">
          <mxGeometry x="-1540" y="430" width="150" height="70" as="geometry" />
        </mxCell>
        <mxCell id="Uvgk_o883Cqr8r8pOxZ5-38" value="&lt;font style=&quot;font-size: 24px;&quot;&gt;теплицы&lt;/font&gt;" style="rounded=1;whiteSpace=wrap;html=1;" vertex="1" parent="1">
          <mxGeometry x="-1750" y="430" width="140" height="70" as="geometry" />
        </mxCell>
        <mxCell id="Uvgk_o883Cqr8r8pOxZ5-40" value="&lt;font style=&quot;font-size: 24px;&quot;&gt;парники&lt;/font&gt;" style="rounded=1;whiteSpace=wrap;html=1;" vertex="1" parent="1">
          <mxGeometry x="-1980" y="430" width="150" height="70" as="geometry" />
        </mxCell>
        <mxCell id="Uvgk_o883Cqr8r8pOxZ5-42" value="&lt;font style=&quot;font-size: 24px;&quot;&gt;инкубаторы&lt;/font&gt;" style="rounded=1;whiteSpace=wrap;html=1;" vertex="1" parent="1">
          <mxGeometry x="-1460" y="610" width="170" height="60" as="geometry" />
        </mxCell>
        <mxCell id="Uvgk_o883Cqr8r8pOxZ5-44" value="&lt;font style=&quot;font-size: 24px;&quot;&gt;акклиматизаторы&lt;/font&gt;" style="rounded=1;whiteSpace=wrap;html=1;" vertex="1" parent="1">
          <mxGeometry x="-1260" y="610" width="240" height="50" as="geometry" />
        </mxCell>
        <mxCell id="Uvgk_o883Cqr8r8pOxZ5-46" value="&lt;font style=&quot;font-size: 24px;&quot;&gt;птичники&lt;/font&gt;" style="rounded=1;whiteSpace=wrap;html=1;" vertex="1" parent="1">
          <mxGeometry x="-1320" y="520" width="120" height="60" as="geometry" />
        </mxCell>
        <mxCell id="Uvgk_o883Cqr8r8pOxZ5-48" value="&lt;font style=&quot;font-size: 24px;&quot;&gt;свинарники&lt;/font&gt;" style="rounded=1;whiteSpace=wrap;html=1;" vertex="1" parent="1">
          <mxGeometry x="-1130" y="400" width="150" height="70" as="geometry" />
        </mxCell>
        <mxCell id="Uvgk_o883Cqr8r8pOxZ5-50" value="&lt;font style=&quot;font-size: 24px;&quot;&gt;коровники&lt;/font&gt;" style="rounded=1;whiteSpace=wrap;html=1;" vertex="1" parent="1">
          <mxGeometry x="-1020" y="490" width="140" height="70" as="geometry" />
        </mxCell>
        <mxCell id="Uvgk_o883Cqr8r8pOxZ5-52" value="&lt;font style=&quot;font-size: 24px;&quot;&gt;телятники&lt;/font&gt;" style="rounded=1;whiteSpace=wrap;html=1;" vertex="1" parent="1">
          <mxGeometry x="-670" y="520" width="120" height="60" as="geometry" />
        </mxCell>
        <mxCell id="Uvgk_o883Cqr8r8pOxZ5-54" value="&lt;font style=&quot;font-size: 24px;&quot;&gt;конюшни&lt;/font&gt;" style="rounded=1;whiteSpace=wrap;html=1;" vertex="1" parent="1">
          <mxGeometry x="-850" y="520" width="120" height="60" as="geometry" />
        </mxCell>
      </root>
    </mxGraphModel>
  </diagram>
</mxfile>
